<svg xmlns="http://www.w3.org/2000/svg" viewBox="0 0 1000 1000"><path d="M408.2 611.2c-145.1 0-263.1-118-263.1-263.2 0-145.1 118-263.1 263.1-263.1 145.1 0 263.2 118 263.2 263.1C671.4 493.2 553.3 611.2 408.2 611.2zM408.2 143.2c-113 0-204.9 91.9-204.9 204.8 0 113 91.9 204.9 204.9 204.9 113 0 204.9-91.9 204.9-204.9C613.1 235.1 521.2 143.2 408.2 143.2zM408.2 699.6c145.1 0 273.5 85.1 353.5 215.5 15.5-11.9 30.5-24.5 44.7-37.9-90.7-142.8-235.2-235.9-398.2-235.9-163 0-307.5 93.1-398.2 235.9 14.3 13.4 29.2 26 44.7 37.9C134.7 784.7 263.2 699.6 408.2 699.6z"/><path d="M736.3 552.8c92.5 0 167.7-75.2 167.7-167.7 0-92.4-75.2-167.6-167.7-167.6-53.9 0-101.4 26-132.1 65.7l14.4 46.5c20.9-44.2 65.6-75.1 117.7-75.1 72 0 130.5 58.5 130.5 130.5 0 72-58.5 130.5-130.5 130.5-51.5 0-95.6-30.2-116.9-73.6-5.2 14.5-10.3 30.6-14.1 46.4C636 527.4 683 552.8 736.3 552.8zM736.3 572c-90.2 0-171.5 44.8-229.2 116.3l37.2 13.8c50.1-57.2 117.5-92.9 192-92.9 92.4 0 174.3 54.2 225.2 137.3 9.9-7.6 19.4-15.6 28.5-24.1C932.2 631.3 840.1 572 736.3 572z"/></svg>