<svg stroke-width=".5" stroke-linejoin="bevel" fill-rule="evenodd" xmlns="http://www.w3.org/2000/svg" overflow="visible" viewBox="0 0 142.3 23.528"><g fill-rule="nonzero" stroke-linejoin="round" stroke-linecap="round" stroke="none" stroke-width=".3" stroke-miterlimit="79.8" fill="none"><path d="M12.192 3.902L12.263 3.914 14.243 12.925 16.973 12.925 13.505.246 11.173.246 8.477 8.906 8.454 9.023 8.442 8.906 5.77.246 3.438.246-.03 12.925 2.7 12.925 4.727 4.043 4.798 4.031 7.434 12.925 9.509 12.925 12.192 3.902zM24.404 0C22.607 0 21.175.588 20.109 1.764 19.042 2.94 18.509 4.449 18.509 6.293L18.509 6.762C18.509 8.606 19.038 10.135 20.097 11.349 21.156 12.564 22.482 13.168 24.075 13.16 25.786 13.16 27.097 12.642 28.007 11.607 28.917 10.572 29.372 9.183 29.372 7.441L29.372 5.766 21.462 5.766 21.439 5.707C21.486 4.703 21.78 3.881 22.323 3.243 22.866 2.604 23.618 2.285 24.579 2.285 25.345 2.285 26.001 2.379 26.548 2.566 27.095 2.754 27.622 3.023 28.13 3.375L29.044 1.508C28.568 1.084 27.935.726 27.146.436 26.357.145 25.443 0 24.404 0zM24.075 10.875C23.372 10.875 22.794 10.595 22.341 10.037 21.888 9.478 21.607 8.769 21.497 7.91L21.521 7.851 26.548 7.851 26.548 8.144C26.548 8.949 26.343 9.605 25.933 10.113 25.523 10.621 24.903 10.875 24.075 10.875zM37.107 0C35.31 0 33.878.588 32.812 1.764 31.745 2.94 31.212 4.449 31.212 6.293L31.212 6.762C31.212 8.606 31.741 10.135 32.8 11.349 33.859 12.564 35.185 13.168 36.778 13.16 38.489 13.16 39.8 12.642 40.71 11.607 41.62 10.572 42.075 9.183 42.075 7.441L42.075 5.766 34.165 5.766 34.142 5.707C34.189 4.703 34.483 3.881 35.026 3.243 35.569 2.604 36.321 2.285 37.282 2.285 38.048 2.285 38.704 2.379 39.251 2.566 39.798 2.754 40.325 3.023 40.833 3.375L41.747 1.508C41.271 1.084 40.638.726 39.849.436 39.06.145 38.146 0 37.107 0zM36.778 10.875C36.075 10.875 35.497 10.595 35.044 10.037 34.591 9.478 34.31 8.769 34.2 7.91L34.224 7.851 39.251 7.851 39.251 8.144C39.251 8.949 39.046 9.605 38.636 10.113 38.226 10.621 37.606 10.875 36.778 10.875zM55.505 6.164C55.505 4.312 55.073 2.822 54.21 1.693 53.347.564 52.13 0 50.56 0 49.771 0 49.085.16 48.503.48 47.921.801 47.435 1.27 47.044 1.887L46.763.246 44.372.246 44.372 18.527 47.22 18.527 47.22 11.484C47.61 12.023 48.079 12.437 48.626 12.726 49.173 13.015 49.809 13.16 50.536 13.16 52.122 13.16 53.347 12.543 54.21 11.308 55.073 10.074 55.505 8.441 55.505 6.41L55.505 6.164zM52.657 6.41C52.657 7.73 52.43 8.797 51.977 9.609 51.524 10.421 50.806 10.828 49.821 10.828 49.188 10.828 48.659 10.687 48.233 10.406 47.807 10.125 47.47 9.734 47.22 9.234L47.22 3.914C47.462 3.406 47.798 3.014 48.227 2.736 48.657 2.459 49.196 2.32 49.845 2.32 50.829 2.32 51.544 2.666 51.989 3.357 52.434 4.049 52.657 4.984 52.657 6.164L52.657 6.41zM61.001.246L58.154.246 58.154 18.527 61.001 18.527 61.001.246zM70.505 10.359L69.287 10.406C68.732 10.406 68.269 10.289 67.898 10.054 67.527 9.82 67.24 9.488 67.037 9.059L67.037.246 64.189.246 64.189 12.925 66.791 12.925 66.978 11.086C67.298 11.734 67.71 12.242 68.214 12.609 68.718 12.976 69.299 13.16 69.955 13.16 70.127 13.16 70.287 13.146 70.435 13.119 70.584 13.091 70.72 13.058 70.845 13.019L70.505 10.359z" fill="#7e7e7e" transform="matrix(1 0 0 -1 0 23.528)"/><path d="M92.11 1.968C92.25 1.546 92.338 1.212 92.373.966 92.408.72 92.361.536 92.233.413 92.104.29 91.875.214 91.547.184 91.219.155 90.768.14 90.194.14 89.596.14 89.13.149 88.796.167 88.462.184 88.207.22 88.031.272 87.855.325 87.732.398 87.662.492 87.592.586 87.533.709 87.487.861L85.957 5.431 77.414 5.431 75.973.984C75.926.82 75.864.682 75.788.571 75.712.46 75.589.372 75.419.307 75.249.243 75.009.199 74.698.175 74.388.152 73.981.14 73.477.14 72.938.14 72.516.158 72.211.193 71.907.228 71.696.313 71.578.448 71.461.583 71.42.773 71.455 1.019 71.491 1.265 71.578 1.593 71.719 2.004L78.733 22.183C78.803 22.382 78.885 22.543 78.979 22.667 79.072 22.79 79.222 22.884 79.427 22.948 79.632 23.012 79.916 23.053 80.28 23.071 80.643 23.089 81.123 23.097 81.721 23.097 82.412 23.097 82.963 23.089 83.373 23.071 83.783 23.053 84.103 23.012 84.331 22.948 84.56 22.884 84.724 22.787 84.823 22.658 84.923 22.529 85.008 22.353 85.078 22.131L92.11 1.968zM81.668 18.65L81.651 18.65 78.434 8.982 84.885 8.982 81.668 18.65zM121.8.879C121.799.761 121.767.656 121.703.562 121.639.468 121.521.392 121.351.334 121.181.275 120.956.228 120.675.193 120.393.158 120.036.14 119.602.14 119.18.14 118.829.158 118.548.193 118.266.228 118.044.275 117.88.334 117.716.392 117.599.468 117.528.562 117.458.656 117.423.761 117.423.879L117.423 19.388 117.387 19.388 110.796.896C110.749.744 110.673.618 110.567.518 110.462.419 110.318.339 110.136.281 109.955.222 109.723.184 109.442.167 109.161.149 108.821.14 108.423.14 108.024.14 107.685.155 107.403.184 107.122.214 106.891.261 106.709.325 106.527.389 106.384.468 106.278.562 106.173.656 106.102.767 106.067.896L99.704 19.388 99.669 19.388 99.669.879C99.669.761 99.637.656 99.572.562 99.508.468 99.388.392 99.212.334 99.036.275 98.81.228 98.535.193 98.259.158 97.905.14 97.471.14 97.049.14 96.698.158 96.417.193 96.135.228 95.91.275 95.74.334 95.57.392 95.453.468 95.388.562 95.324.656 95.292.761 95.292.879L95.292 21.146C95.292 21.744 95.45 22.201 95.766 22.517 96.083 22.834 96.505 22.992 97.032 22.992L100.055 22.992C100.594 22.992 101.057 22.948 101.444 22.86 101.831 22.772 102.165 22.626 102.446 22.421 102.727 22.215 102.962 21.946 103.149 21.612 103.337 21.278 103.501 20.865 103.641 20.373L108.563 6.82 108.634 6.82 113.731 20.338C113.883 20.83 114.05 21.246 114.232 21.586 114.414 21.926 114.625 22.201 114.865 22.412 115.105 22.623 115.39 22.772 115.718 22.86 116.046 22.948 116.426 22.992 116.86 22.992L119.971 22.992C120.288 22.992 120.56 22.951 120.789 22.869 121.017 22.787 121.205 22.667 121.351 22.508 121.498 22.35 121.609 22.157 121.685 21.928 121.761 21.7 121.799 21.439 121.8 21.146L121.8.879zM142.331 16.084C142.331 14.807 142.132 13.676 141.733 12.691 141.335 11.707 140.755 10.878 139.993 10.204 139.232 9.53 138.297 9.017 137.189 8.666 136.082 8.314 134.778 8.138 133.278 8.138L131.38 8.138 131.38.879C131.38.761 131.342.656 131.266.562 131.189.468 131.063.392 130.888.334 130.712.275 130.478.228 130.185.193 129.892.158 129.517.14 129.06.14 128.614.14 128.242.158 127.943.193 127.644.228 127.407.275 127.231.334 127.056.392 126.933.468 126.862.562 126.792.656 126.757.761 126.757.879L126.757 21.34C126.757 21.891 126.9 22.304 127.187 22.579 127.474 22.854 127.852 22.992 128.321 22.992L133.683 22.992C134.222 22.992 134.734 22.971 135.221 22.93 135.707 22.889 136.29 22.801 136.97 22.667 137.649 22.532 138.338 22.283 139.035 21.92 139.732 21.556 140.327 21.096 140.819 20.54 141.311 19.983 141.686 19.333 141.944 18.589 142.202 17.845 142.331 17.01 142.331 16.084zM137.497 15.75C137.497 16.547 137.356 17.203 137.075 17.718 136.794 18.234 136.448 18.615 136.038 18.861 135.628 19.107 135.197 19.263 134.746 19.327 134.295 19.391 133.829 19.423 133.349 19.423L131.38 19.423 131.38 11.707 133.454 11.707C134.192 11.707 134.811 11.806 135.309 12.006 135.807 12.205 136.214 12.483 136.53 12.84 136.847 13.198 137.087 13.626 137.251 14.124 137.415 14.622 137.497 15.164 137.497 15.75z" fill="#327dcb" transform="matrix(1 0 0 -1 0 23.528)"/></g></svg>